<svg xmlns="http://www.w3.org/2000/svg" viewBox="0 0 64 64"><defs><linearGradient id="g" x1="0" y1="0" x2="1" y2="1"><stop stop-color="#f3ddff"/><stop offset=".52" stop-color="#c19bff"/><stop offset="1" stop-color="#8b62d4"/></linearGradient><linearGradient id="h" x1="0" y1="0" x2="0" y2="1"><stop stop-color="#fff" stop-opacity=".65"/><stop offset="1" stop-color="#fff" stop-opacity="0"/></linearGradient></defs><rect width="64" height="64" rx="20" fill="url(#g)"/><path d="M0 20Q0 0 20 0H44Q64 0 64 20V27Q32 15 0 29Z" fill="url(#h)"/><path d="M32 14a18 18 0 1 0 18 18h-8a10 10 0 1 1-10-10z" fill="#29183d"/><path d="M32 27h18a18 18 0 0 1-18 18v-8a10 10 0 0 0 9-10z" fill="#29183d"/><circle cx="47" cy="47" r="3" fill="#fff" fill-opacity=".9"/></svg>